<?xml version="1.0" encoding="UTF-8"?>
<svg version="1.1" xmlns="http://www.w3.org/2000/svg" width="369" height="256">
<path d="M0 0 C0.86320862 -0.01140015 1.72641724 -0.02280029 2.61578369 -0.0345459 C4.44139732 -0.0534155 6.2670786 -0.06650183 8.09277344 -0.07421875 C10.86776627 -0.09359043 13.63976744 -0.1556306 16.4140625 -0.21875 C18.19269084 -0.23181607 19.97134027 -0.24231466 21.75 -0.25 C22.98166901 -0.28704041 22.98166901 -0.28704041 24.23822021 -0.3248291 C32.22391322 -0.26394915 36.69099796 3.8945686 42.15234375 9.30078125 C50.14048625 18.01193811 56.31001135 25.44118393 56.23828125 37.70703125 C56.23505859 38.68349609 56.23183594 39.65996094 56.22851562 40.66601562 C56.22013672 41.67341797 56.21175781 42.68082031 56.203125 43.71875 C56.19861328 44.74548828 56.19410156 45.77222656 56.18945312 46.83007812 C56.17770684 49.35552882 56.16128065 51.88085905 56.140625 54.40625 C56.94384689 54.39292633 57.74706879 54.37960266 58.57463074 54.36587524 C66.15180872 54.24555103 73.72852227 54.15425278 81.30640697 54.09537697 C85.20216376 54.06408995 89.09712991 54.02166866 92.99243164 53.95361328 C96.75316929 53.88832161 100.51314758 53.85252417 104.27440834 53.83698654 C105.70780708 53.8259173 107.14116516 53.80430015 108.57423973 53.77186966 C119.73165879 53.52946607 119.73165879 53.52946607 123.14141846 55.65132141 C126.54988967 59.48703382 126.77413227 63.46387768 126.515625 68.34375 C126.49564453 69.10284668 126.47566406 69.86194336 126.45507812 70.64404297 C126.37833092 73.23322392 126.26059167 75.81872459 126.140625 78.40625 C126.05891256 80.50386818 125.97822194 82.60152635 125.8984375 84.69921875 C125.67730148 90.26988266 125.4205885 95.83825258 125.140625 101.40625 C126.17058594 100.7565625 127.20054687 100.106875 128.26171875 99.4375 C133.44907504 96.48299066 138.30842082 96.62536911 144.140625 97.40625 C149.38106413 99.73533406 153.64164946 104.22107926 156.140625 109.40625 C156.65061825 112.39628591 156.93375993 115.38130555 157.140625 118.40625 C158.00341064 118.39577637 158.86619629 118.38530273 159.75512695 118.37451172 C162.95873021 118.34041017 166.1622409 118.31534143 169.3659668 118.29638672 C170.75206548 118.2863343 172.13814299 118.2726903 173.52416992 118.25537109 C175.5173225 118.23109048 177.51063033 118.22082969 179.50390625 118.2109375 C181.30275269 118.19522705 181.30275269 118.19522705 183.13793945 118.17919922 C186.140625 118.40625 186.140625 118.40625 189.140625 120.40625 C189.50401306 122.72610474 189.50401306 122.72610474 189.48413086 125.68408203 C189.48200089 126.80064178 189.47987091 127.91720154 189.47767639 129.06759644 C189.44812111 130.90972214 189.44812111 130.90972214 189.41796875 132.7890625 C189.40152565 134.71711227 189.40152565 134.71711227 189.38475037 136.68411255 C189.22116732 152.12382366 188.51770458 167.55022574 187.80822754 182.97253418 C187.66675086 186.08025586 187.53138943 189.18823117 187.39621067 192.29623222 C187.23134305 196.08040584 187.06311386 199.86442785 186.89453125 203.6484375 C186.86397707 204.33963558 186.83342289 205.03083366 186.80194283 205.74297714 C186.65608961 209.01828796 186.50074679 212.29267109 186.33084106 215.5668335 C186.19898447 218.22829321 186.09239578 220.88228283 186.01168823 223.54498291 C185.95616081 224.8895485 185.90011769 226.23409291 185.84350586 227.57861328 C185.80390244 228.77060333 185.76429901 229.96259338 185.72349548 231.19070435 C185.03779955 234.97351141 183.79922789 236.67776339 181.140625 239.40625 C178.45963447 240.74674527 176.40751294 240.5260552 173.40576172 240.51977539 C172.20466766 240.51969986 171.00357361 240.51962433 169.76608276 240.51954651 C167.81292648 240.51180458 167.81292648 240.51180458 165.8203125 240.50390625 C164.47795667 240.50204138 163.13560016 240.5006178 161.79324341 240.49961853 C158.25866825 240.49579878 154.72413413 240.48597312 151.1895752 240.47491455 C147.58342036 240.46468878 143.9772589 240.46011841 140.37109375 240.45507812 C133.29425404 240.44435038 126.2174422 240.42728045 119.140625 240.40625 C119.10324219 241.14230469 119.06585938 241.87835938 119.02734375 242.63671875 C118.96160156 243.61253906 118.89585937 244.58835938 118.828125 245.59375 C118.77011719 246.55667969 118.71210938 247.51960937 118.65234375 248.51171875 C118.04432934 251.95094528 117.38323755 253.70833995 115.140625 256.40625 C112.3168611 256.9211678 110.08199427 257.08674547 107.25196838 257.04789734 C106.43960045 257.05640286 105.62723252 257.06490838 104.79024738 257.07367164 C102.05837724 257.09602073 99.32785914 257.0824815 96.59594727 257.0690918 C94.64141866 257.07750089 92.68689817 257.08802418 90.73239136 257.10050964 C85.41621125 257.12763467 80.10049896 257.12283657 74.78428006 257.11080909 C70.35064956 257.10369297 65.91710643 257.1121667 61.48348278 257.12071449 C51.02626251 257.14069033 40.56927072 257.13507094 30.11206055 257.11303711 C19.31403971 257.09067213 8.51661665 257.10826851 -2.28134769 257.14608639 C-11.54343622 257.1772893 -20.8053394 257.1852456 -30.06747395 257.17413265 C-35.60316487 257.16763447 -41.13851071 257.1697007 -46.67416191 257.19345665 C-51.87905344 257.21465437 -57.08309934 257.20680179 -62.28793716 257.17636299 C-64.20035901 257.1700166 -66.11284601 257.17394196 -68.02522087 257.18877411 C-70.6323708 257.20735886 -73.23672616 257.18914268 -75.84373474 257.16142273 C-76.98463622 257.1825224 -76.98463622 257.1825224 -78.14858621 257.20404834 C-80.26770687 257.15850353 -80.26770687 257.15850353 -83.859375 256.40625 C-87.859375 251.73256017 -87.859375 251.73256017 -87.859375 248.40625 C-88.73554474 248.41291183 -89.61171448 248.41957367 -90.51443481 248.42643738 C-98.78300932 248.4866196 -107.05150995 248.53226055 -115.32025337 248.56168652 C-119.57101939 248.57732344 -123.821604 248.59852545 -128.07226562 248.63256836 C-132.17659151 248.66523252 -136.28074319 248.68311786 -140.38518906 248.69088173 C-141.94884863 248.6964126 -143.51249898 248.70721312 -145.07608414 248.72344017 C-147.27114502 248.74530886 -149.46549174 248.74821308 -151.66064453 248.74682617 C-153.53262009 248.75681892 -153.53262009 248.75681892 -155.44241333 248.76701355 C-159.33232519 248.35631582 -161.61964547 247.59998804 -164.859375 245.40625 C-167.91464908 240.92887712 -168.37541512 236.618477 -168.56713867 231.33276367 C-168.60657121 230.54166419 -168.64600374 229.75056471 -168.6866312 228.93549252 C-168.81356092 226.31550044 -168.92075798 223.6951113 -169.02734375 221.07421875 C-169.1121159 219.21869657 -169.19784907 217.36321808 -169.28448486 215.50778198 C-169.51119383 210.55742874 -169.71896716 205.60646265 -169.92103195 200.65504837 C-170.04661037 197.60018755 -170.17671451 194.54555089 -170.30813599 191.49093628 C-171.3220128 167.82389318 -172.24909676 144.16040009 -172.296875 120.46875 C-172.30286713 119.4625058 -172.30885925 118.4562616 -172.31503296 117.41952515 C-172.32615282 114.6763489 -172.31517678 111.93449064 -172.29296875 109.19140625 C-172.29572815 108.41248016 -172.29848755 107.63355408 -172.30133057 106.83102417 C-172.26342773 104.71899414 -172.26342773 104.71899414 -171.859375 101.40625 C-168.21632636 98.97755091 -165.55215161 99.14949325 -161.34765625 99.2109375 C-160.61943161 99.2137674 -159.89120697 99.21659729 -159.14091492 99.21951294 C-156.81773363 99.23069743 -154.49493953 99.25579834 -152.171875 99.28125 C-150.5957087 99.29128206 -149.01953635 99.30040752 -147.44335938 99.30859375 C-143.58188233 99.33063104 -139.72069429 99.36514859 -135.859375 99.40625 C-135.88330322 98.37709473 -135.90723145 97.34793945 -135.93188477 96.28759766 C-135.95123768 94.92351035 -135.97000567 93.55941466 -135.98828125 92.1953125 C-136.00556274 91.51863525 -136.02284424 90.84195801 -136.04064941 90.14477539 C-136.09033646 85.19714981 -135.43171829 81.90700941 -132.41796875 77.98828125 C-128.49786391 74.00922747 -124.59685504 70.836561 -118.859375 70.40625 C-117.786875 70.32375 -116.714375 70.24125 -115.609375 70.15625 C-109.4098182 70.56955379 -104.59591554 71.95322629 -99.796875 75.96875 C-97.859375 78.40625 -97.859375 78.40625 -97.859375 80.40625 C-97.199375 80.40625 -96.539375 80.40625 -95.859375 80.40625 C-95.89417969 79.09269531 -95.92898437 77.77914062 -95.96484375 76.42578125 C-95.99298966 74.69011699 -96.02028896 72.95443885 -96.046875 71.21875 C-96.07201172 70.35443359 -96.09714844 69.49011719 -96.12304688 68.59960938 C-96.17918371 63.71570456 -96.12507957 60.32661796 -92.859375 56.40625 C-89.37274777 54.08183185 -88.03359577 54.16223259 -83.91918945 54.17919922 C-82.08763054 54.17942581 -82.08763054 54.17942581 -80.21907043 54.17965698 C-78.90025375 54.18997955 -77.58143707 54.20030212 -76.22265625 54.2109375 C-74.85931099 54.21466839 -73.49596304 54.217515 -72.13261414 54.21951294 C-68.54703346 54.22714347 -64.96161521 54.24678685 -61.37609863 54.2689209 C-57.71624956 54.28939189 -54.05637421 54.29851733 -50.39648438 54.30859375 C-43.21737393 54.3300334 -36.03839724 54.36416221 -28.859375 54.40625 C-28.86984863 53.69082031 -28.88032227 52.97539063 -28.89111328 52.23828125 C-28.93298056 48.96097399 -28.95879829 45.68372326 -28.984375 42.40625 C-29.00113281 41.28089844 -29.01789063 40.15554687 -29.03515625 38.99609375 C-29.10966849 26.2545015 -26.4027891 15.73681659 -17.296875 6.40625 C-11.61596867 0.89271872 -7.71326663 0.07906431 0 0 Z M-6.984375 11.53125 C-7.603125 12.15 -8.221875 12.76875 -8.859375 13.40625 C-8.859375 14.06625 -8.859375 14.72625 -8.859375 15.40625 C-9.519375 15.40625 -10.179375 15.40625 -10.859375 15.40625 C-16.77486445 25.76964564 -19.04739481 33.86143567 -18.921875 45.84375 C-18.91736328 46.67068359 -18.91285156 47.49761719 -18.90820312 48.34960938 C-18.89653311 50.36852146 -18.87860218 52.38739574 -18.859375 54.40625 C-17.539375 54.40625 -16.219375 54.40625 -14.859375 54.40625 C-14.8500293 53.75664307 -14.84068359 53.10703613 -14.83105469 52.43774414 C-14.77682417 49.44735661 -14.6932835 46.45844625 -14.609375 43.46875 C-14.59519531 42.44716797 -14.58101562 41.42558594 -14.56640625 40.37304688 C-14.24083805 30.18276219 -10.96110111 21.83647005 -3.859375 14.40625 C0.50816834 10.92610504 4.91500705 8.37159664 10.140625 6.40625 C4.07578748 4.23523426 -2.01420846 8.15153675 -6.984375 11.53125 Z M0.390625 21.53125 C-8.47422937 31.04524702 -6.859375 41.48479689 -6.859375 54.40625 C9.970625 54.40625 26.800625 54.40625 44.140625 54.40625 C45.21357554 32.89210857 45.21357554 32.89210857 35.63671875 15.70703125 C24.63903447 6.14507599 9.53829558 13.41512525 0.390625 21.53125 Z M51.140625 42.40625 C51.140625 46.36625 51.140625 50.32625 51.140625 54.40625 C51.470625 54.40625 51.800625 54.40625 52.140625 54.40625 C52.140625 50.44625 52.140625 46.48625 52.140625 42.40625 C51.810625 42.40625 51.480625 42.40625 51.140625 42.40625 Z M-121.109375 85.96875 C-124.87684755 91.21630105 -123.859375 91.1570062 -123.859375 99.40625 C-115.609375 99.40625 -107.359375 99.40625 -98.859375 99.40625 C-98.859375 92.16233477 -98.87072868 87.38921948 -102.859375 81.40625 C-110.41542476 78.88756675 -115.88099086 80.01420139 -121.109375 85.96875 Z M-129.859375 89.40625 C-129.859375 92.70625 -129.859375 96.00625 -129.859375 99.40625 C-129.529375 99.40625 -129.199375 99.40625 -128.859375 99.40625 C-128.859375 96.10625 -128.859375 92.80625 -128.859375 89.40625 C-129.189375 89.40625 -129.519375 89.40625 -129.859375 89.40625 Z M133.140625 109.40625 C131.36433632 112.789657 131.140625 114.49559069 131.140625 118.40625 C137.410625 118.40625 143.680625 118.40625 150.140625 118.40625 C150.31014861 111.52929597 150.31014861 111.52929597 147.140625 106.40625 C145.93203948 104.9823504 145.93203948 104.9823504 142.390625 105.09375 C138.13886508 105.15470713 136.07559995 106.21230667 133.140625 109.40625 Z " fill="#E73189" transform="translate(171.859375,-0.40625)"/>
<path d="M0 0 C0.86320862 -0.01140015 1.72641724 -0.02280029 2.61578369 -0.0345459 C4.44139732 -0.0534155 6.2670786 -0.06650183 8.09277344 -0.07421875 C10.86776627 -0.09359043 13.63976744 -0.1556306 16.4140625 -0.21875 C18.19269084 -0.23181607 19.97134027 -0.24231466 21.75 -0.25 C22.98166901 -0.28704041 22.98166901 -0.28704041 24.23822021 -0.3248291 C32.22391322 -0.26394915 36.69099796 3.8945686 42.15234375 9.30078125 C50.14048625 18.01193811 56.31001135 25.44118393 56.23828125 37.70703125 C56.23505859 38.68349609 56.23183594 39.65996094 56.22851562 40.66601562 C56.22013672 41.67341797 56.21175781 42.68082031 56.203125 43.71875 C56.19861328 44.74548828 56.19410156 45.77222656 56.18945312 46.83007812 C56.17770684 49.35552882 56.16128065 51.88085905 56.140625 54.40625 C56.94384689 54.39292633 57.74706879 54.37960266 58.57463074 54.36587524 C66.15180872 54.24555103 73.72852227 54.15425278 81.30640697 54.09537697 C85.20216376 54.06408995 89.09712991 54.02166866 92.99243164 53.95361328 C96.75316929 53.88832161 100.51314758 53.85252417 104.27440834 53.83698654 C105.70780708 53.8259173 107.14116516 53.80430015 108.57423973 53.77186966 C119.73165879 53.52946607 119.73165879 53.52946607 123.14141846 55.65132141 C126.54988967 59.48703382 126.77413227 63.46387768 126.515625 68.34375 C126.49564453 69.10284668 126.47566406 69.86194336 126.45507812 70.64404297 C126.37833092 73.23322392 126.26059167 75.81872459 126.140625 78.40625 C126.05891256 80.50386818 125.97822194 82.60152635 125.8984375 84.69921875 C125.67730148 90.26988266 125.4205885 95.83825258 125.140625 101.40625 C126.17058594 100.7565625 127.20054687 100.106875 128.26171875 99.4375 C133.44907504 96.48299066 138.30842082 96.62536911 144.140625 97.40625 C149.38106413 99.73533406 153.64164946 104.22107926 156.140625 109.40625 C156.65061825 112.39628591 156.93375993 115.38130555 157.140625 118.40625 C158.00341064 118.39577637 158.86619629 118.38530273 159.75512695 118.37451172 C162.95873021 118.34041017 166.1622409 118.31534143 169.3659668 118.29638672 C170.75206548 118.2863343 172.13814299 118.2726903 173.52416992 118.25537109 C175.5173225 118.23109048 177.51063033 118.22082969 179.50390625 118.2109375 C181.30275269 118.19522705 181.30275269 118.19522705 183.13793945 118.17919922 C186.140625 118.40625 186.140625 118.40625 189.140625 120.40625 C189.50401306 122.72610474 189.50401306 122.72610474 189.48413086 125.68408203 C189.48200089 126.80064178 189.47987091 127.91720154 189.47767639 129.06759644 C189.44812111 130.90972214 189.44812111 130.90972214 189.41796875 132.7890625 C189.40152565 134.71711227 189.40152565 134.71711227 189.38475037 136.68411255 C189.22116732 152.12382366 188.51770458 167.55022574 187.80822754 182.97253418 C187.66675086 186.08025586 187.53138943 189.18823117 187.39621067 192.29623222 C187.23134305 196.08040584 187.06311386 199.86442785 186.89453125 203.6484375 C186.86397707 204.33963558 186.83342289 205.03083366 186.80194283 205.74297714 C186.65608961 209.01828796 186.50074679 212.29267109 186.33084106 215.5668335 C186.19898447 218.22829321 186.09239578 220.88228283 186.01168823 223.54498291 C185.95616081 224.8895485 185.90011769 226.23409291 185.84350586 227.57861328 C185.80390244 228.77060333 185.76429901 229.96259338 185.72349548 231.19070435 C185.03779955 234.97351141 183.79922789 236.67776339 181.140625 239.40625 C178.45963447 240.74674527 176.40751294 240.5260552 173.40576172 240.51977539 C172.20466766 240.51969986 171.00357361 240.51962433 169.76608276 240.51954651 C167.81292648 240.51180458 167.81292648 240.51180458 165.8203125 240.50390625 C164.47795667 240.50204138 163.13560016 240.5006178 161.79324341 240.49961853 C158.25866825 240.49579878 154.72413413 240.48597312 151.1895752 240.47491455 C147.58342036 240.46468878 143.9772589 240.46011841 140.37109375 240.45507812 C133.29425404 240.44435038 126.2174422 240.42728045 119.140625 240.40625 C119.10324219 241.14230469 119.06585938 241.87835938 119.02734375 242.63671875 C118.96160156 243.61253906 118.89585937 244.58835938 118.828125 245.59375 C118.77011719 246.55667969 118.71210938 247.51960937 118.65234375 248.51171875 C118.04432934 251.95094528 117.38323755 253.70833995 115.140625 256.40625 C112.3168611 256.9211678 110.08199427 257.08674547 107.25196838 257.04789734 C106.43960045 257.05640286 105.62723252 257.06490838 104.79024738 257.07367164 C102.05837724 257.09602073 99.32785914 257.0824815 96.59594727 257.0690918 C94.64141866 257.07750089 92.68689817 257.08802418 90.73239136 257.10050964 C85.41621125 257.12763467 80.10049896 257.12283657 74.78428006 257.11080909 C70.35064956 257.10369297 65.91710643 257.1121667 61.48348278 257.12071449 C51.02626251 257.14069033 40.56927072 257.13507094 30.11206055 257.11303711 C19.31403971 257.09067213 8.51661665 257.10826851 -2.28134769 257.14608639 C-11.54343622 257.1772893 -20.8053394 257.1852456 -30.06747395 257.17413265 C-35.60316487 257.16763447 -41.13851071 257.1697007 -46.67416191 257.19345665 C-51.87905344 257.21465437 -57.08309934 257.20680179 -62.28793716 257.17636299 C-64.20035901 257.1700166 -66.11284601 257.17394196 -68.02522087 257.18877411 C-70.6323708 257.20735886 -73.23672616 257.18914268 -75.84373474 257.16142273 C-76.98463622 257.1825224 -76.98463622 257.1825224 -78.14858621 257.20404834 C-80.26770687 257.15850353 -80.26770687 257.15850353 -83.859375 256.40625 C-87.859375 251.73256017 -87.859375 251.73256017 -87.859375 248.40625 C-88.73554474 248.41291183 -89.61171448 248.41957367 -90.51443481 248.42643738 C-98.78300932 248.4866196 -107.05150995 248.53226055 -115.32025337 248.56168652 C-119.57101939 248.57732344 -123.821604 248.59852545 -128.07226562 248.63256836 C-132.17659151 248.66523252 -136.28074319 248.68311786 -140.38518906 248.69088173 C-141.94884863 248.6964126 -143.51249898 248.70721312 -145.07608414 248.72344017 C-147.27114502 248.74530886 -149.46549174 248.74821308 -151.66064453 248.74682617 C-153.53262009 248.75681892 -153.53262009 248.75681892 -155.44241333 248.76701355 C-159.33232519 248.35631582 -161.61964547 247.59998804 -164.859375 245.40625 C-167.91464908 240.92887712 -168.37541512 236.618477 -168.56713867 231.33276367 C-168.60657121 230.54166419 -168.64600374 229.75056471 -168.6866312 228.93549252 C-168.81356092 226.31550044 -168.92075798 223.6951113 -169.02734375 221.07421875 C-169.1121159 219.21869657 -169.19784907 217.36321808 -169.28448486 215.50778198 C-169.51119383 210.55742874 -169.71896716 205.60646265 -169.92103195 200.65504837 C-170.04661037 197.60018755 -170.17671451 194.54555089 -170.30813599 191.49093628 C-171.3220128 167.82389318 -172.24909676 144.16040009 -172.296875 120.46875 C-172.30286713 119.4625058 -172.30885925 118.4562616 -172.31503296 117.41952515 C-172.32615282 114.6763489 -172.31517678 111.93449064 -172.29296875 109.19140625 C-172.29572815 108.41248016 -172.29848755 107.63355408 -172.30133057 106.83102417 C-172.26342773 104.71899414 -172.26342773 104.71899414 -171.859375 101.40625 C-168.21632636 98.97755091 -165.55215161 99.14949325 -161.34765625 99.2109375 C-160.61943161 99.2137674 -159.89120697 99.21659729 -159.14091492 99.21951294 C-156.81773363 99.23069743 -154.49493953 99.25579834 -152.171875 99.28125 C-150.5957087 99.29128206 -149.01953635 99.30040752 -147.44335938 99.30859375 C-143.58188233 99.33063104 -139.72069429 99.36514859 -135.859375 99.40625 C-135.88330322 98.37709473 -135.90723145 97.34793945 -135.93188477 96.28759766 C-135.95123768 94.92351035 -135.97000567 93.55941466 -135.98828125 92.1953125 C-136.00556274 91.51863525 -136.02284424 90.84195801 -136.04064941 90.14477539 C-136.09033646 85.19714981 -135.43171829 81.90700941 -132.41796875 77.98828125 C-128.49786391 74.00922747 -124.59685504 70.836561 -118.859375 70.40625 C-117.786875 70.32375 -116.714375 70.24125 -115.609375 70.15625 C-109.4098182 70.56955379 -104.59591554 71.95322629 -99.796875 75.96875 C-97.859375 78.40625 -97.859375 78.40625 -97.859375 80.40625 C-97.199375 80.40625 -96.539375 80.40625 -95.859375 80.40625 C-95.89417969 79.09269531 -95.92898437 77.77914062 -95.96484375 76.42578125 C-95.99298966 74.69011699 -96.02028896 72.95443885 -96.046875 71.21875 C-96.07201172 70.35443359 -96.09714844 69.49011719 -96.12304688 68.59960938 C-96.17918371 63.71570456 -96.12507957 60.32661796 -92.859375 56.40625 C-89.37274777 54.08183185 -88.03359577 54.16223259 -83.91918945 54.17919922 C-82.08763054 54.17942581 -82.08763054 54.17942581 -80.21907043 54.17965698 C-78.90025375 54.18997955 -77.58143707 54.20030212 -76.22265625 54.2109375 C-74.85931099 54.21466839 -73.49596304 54.217515 -72.13261414 54.21951294 C-68.54703346 54.22714347 -64.96161521 54.24678685 -61.37609863 54.2689209 C-57.71624956 54.28939189 -54.05637421 54.29851733 -50.39648438 54.30859375 C-43.21737393 54.3300334 -36.03839724 54.36416221 -28.859375 54.40625 C-28.86984863 53.69082031 -28.88032227 52.97539063 -28.89111328 52.23828125 C-28.93298056 48.96097399 -28.95879829 45.68372326 -28.984375 42.40625 C-29.00113281 41.28089844 -29.01789063 40.15554687 -29.03515625 38.99609375 C-29.10966849 26.2545015 -26.4027891 15.73681659 -17.296875 6.40625 C-11.61596867 0.89271872 -7.71326663 0.07906431 0 0 Z M-6.984375 11.53125 C-7.603125 12.15 -8.221875 12.76875 -8.859375 13.40625 C-8.859375 14.06625 -8.859375 14.72625 -8.859375 15.40625 C-9.519375 15.40625 -10.179375 15.40625 -10.859375 15.40625 C-16.77486445 25.76964564 -19.04739481 33.86143567 -18.921875 45.84375 C-18.91736328 46.67068359 -18.91285156 47.49761719 -18.90820312 48.34960938 C-18.89653311 50.36852146 -18.87860218 52.38739574 -18.859375 54.40625 C-17.539375 54.40625 -16.219375 54.40625 -14.859375 54.40625 C-14.8500293 53.75664307 -14.84068359 53.10703613 -14.83105469 52.43774414 C-14.77682417 49.44735661 -14.6932835 46.45844625 -14.609375 43.46875 C-14.59519531 42.44716797 -14.58101562 41.42558594 -14.56640625 40.37304688 C-14.24083805 30.18276219 -10.96110111 21.83647005 -3.859375 14.40625 C0.50816834 10.92610504 4.91500705 8.37159664 10.140625 6.40625 C4.07578748 4.23523426 -2.01420846 8.15153675 -6.984375 11.53125 Z M0.390625 21.53125 C-8.47422937 31.04524702 -6.859375 41.48479689 -6.859375 54.40625 C9.970625 54.40625 26.800625 54.40625 44.140625 54.40625 C45.21357554 32.89210857 45.21357554 32.89210857 35.63671875 15.70703125 C24.63903447 6.14507599 9.53829558 13.41512525 0.390625 21.53125 Z M51.140625 42.40625 C51.140625 46.36625 51.140625 50.32625 51.140625 54.40625 C51.470625 54.40625 51.800625 54.40625 52.140625 54.40625 C52.140625 50.44625 52.140625 46.48625 52.140625 42.40625 C51.810625 42.40625 51.480625 42.40625 51.140625 42.40625 Z M-90.859375 61.40625 C-91.12561709 64.30693739 -91.12561709 64.30693739 -91.01780701 67.68989563 C-90.99949263 68.95679544 -90.98117825 70.22369526 -90.96230888 71.52898598 C-90.80877288 77.31230639 -90.5960829 83.08895964 -90.32446289 88.86791992 C-90.26754776 90.13357285 -90.21063263 91.39922577 -90.1519928 92.70323181 C-90.02942605 95.42806285 -89.90490236 98.15279434 -89.77876472 100.87746239 C-89.57788786 105.21669422 -89.38152349 109.55612379 -89.18565369 113.89558411 C-88.87407388 120.78688621 -88.55948683 127.67804721 -88.24362129 134.56915408 C-87.68120991 146.84087476 -87.12374638 159.11282053 -86.56766123 171.38482934 C-86.37350803 175.66686896 -86.17799912 179.9488437 -85.98130482 184.23076731 C-85.82787803 187.57462193 -85.67568148 190.91853134 -85.52368164 194.26245117 C-85.46566911 195.53744571 -85.40765657 196.81244024 -85.34788609 198.12607098 C-84.90923816 207.92490531 -84.53796234 217.72552737 -84.23096561 227.52939892 C-84.13091703 230.48992866 -83.99968499 233.44739118 -83.859375 236.40625 C-83.83418856 237.31872686 -83.80900211 238.23120373 -83.78305244 239.17133141 C-83.7365801 240.03588259 -83.69010777 240.90043377 -83.64222717 241.79118347 C-83.61170289 242.5399837 -83.58117861 243.28878393 -83.54972935 244.06027508 C-82.51511818 247.57610991 -80.70148279 250.15212533 -77.859375 252.40625 C-75.08944997 253.00957594 -73.18158842 253.21005042 -70.42028809 253.14796448 C-69.68042081 253.15520772 -68.94055354 253.16245097 -68.17826605 253.16991371 C-65.70331787 253.18679892 -63.23070245 253.16086525 -60.75585938 253.13500977 C-58.9799995 253.13822919 -57.20414271 253.14404668 -55.42829895 253.15226746 C-50.60785371 253.16680751 -45.78824188 253.14385389 -40.96789742 253.11340833 C-35.92404252 253.08705437 -30.88021342 253.09233941 -25.83630371 253.0934906 C-17.36582497 253.09068104 -8.89566866 253.06463527 -0.42529297 253.02368164 C9.36832435 252.97650524 19.16158855 252.96068735 28.9553113 252.9628883 C38.37558677 252.96471944 47.79574724 252.94940043 57.21598816 252.92451286 C61.22544757 252.91392057 65.23486627 252.90842401 69.24433899 252.90683174 C73.96565482 252.90381779 78.68667424 252.88549861 83.40789223 252.85533333 C85.14088946 252.84657196 86.87392081 252.84287948 88.60693932 252.84461594 C90.97212049 252.84608899 93.3364725 252.82911459 95.70153809 252.80738831 C96.38782492 252.81203411 97.07411176 252.81667992 97.78119516 252.82146651 C102.05759314 252.75656342 104.71527215 251.9756558 108.140625 249.40625 C110.48002337 246.14066467 110.49104111 242.89703338 110.68725586 238.95727539 C110.72179996 238.31118443 110.75634407 237.66509346 110.79193497 236.99942398 C110.90525149 234.83460158 111.00547274 232.66938194 111.10546875 230.50390625 C111.18354742 228.94798099 111.26228432 227.39208863 111.34162903 225.83622742 C111.55480961 221.60007247 111.75557616 217.36341236 111.95329285 213.12651062 C112.07811618 210.4689378 112.20619221 207.81154138 112.33532715 205.1541748 C113.68103443 177.41886118 114.8055605 149.6758745 115.79213333 121.92557907 C115.85756619 120.08577769 115.92330651 118.24598721 115.98936081 116.40620804 C116.90079069 92.23268375 116.90079069 92.23268375 117.28125 68.046875 C117.28493591 67.2490863 117.28862183 66.45129761 117.29241943 65.6293335 C117.57117318 62.22964394 117.57117318 62.22964394 116.140625 59.40625 C113.50235975 59.30399946 110.89012251 59.26738629 108.25123596 59.27253723 C107.41466443 59.27027167 106.57809291 59.26800612 105.71617073 59.26567191 C102.89092626 59.25930206 100.0657294 59.26016317 97.24047852 59.26098633 C95.22389666 59.2579967 93.20731538 59.25459463 91.19073486 59.25080872 C85.69703029 59.24194468 80.20334128 59.2396296 74.70963025 59.23899293 C70.13179227 59.23804588 65.55395795 59.23436996 60.97612137 59.23082083 C50.18061224 59.22266719 39.38511146 59.22023743 28.58959961 59.22094727 C17.43391516 59.22154835 6.27827903 59.21099243 -4.87739319 59.1952036 C-14.43830196 59.18215145 -23.99919491 59.17676239 -33.56011254 59.17740268 C-39.27786426 59.17765834 -44.99557307 59.17476951 -50.71331596 59.16422462 C-56.08862347 59.1545826 -61.46384672 59.15443752 -66.8391571 59.16174126 C-68.81692693 59.16279196 -70.79470189 59.16039567 -72.77246284 59.1543808 C-75.46274356 59.14672616 -78.15272851 59.15126194 -80.84300232 59.15901184 C-81.63413892 59.15386828 -82.42527552 59.14872471 -83.24038595 59.14342529 C-87.51202793 59.01524922 -87.51202793 59.01524922 -90.859375 61.40625 Z M-121.109375 85.96875 C-124.87684755 91.21630105 -123.859375 91.1570062 -123.859375 99.40625 C-115.609375 99.40625 -107.359375 99.40625 -98.859375 99.40625 C-98.859375 92.16233477 -98.87072868 87.38921948 -102.859375 81.40625 C-110.41542476 78.88756675 -115.88099086 80.01420139 -121.109375 85.96875 Z M-129.859375 89.40625 C-129.859375 92.70625 -129.859375 96.00625 -129.859375 99.40625 C-129.529375 99.40625 -129.199375 99.40625 -128.859375 99.40625 C-128.859375 96.10625 -128.859375 92.80625 -128.859375 89.40625 C-129.189375 89.40625 -129.519375 89.40625 -129.859375 89.40625 Z M133.140625 109.40625 C131.36433632 112.789657 131.140625 114.49559069 131.140625 118.40625 C137.410625 118.40625 143.680625 118.40625 150.140625 118.40625 C150.31014861 111.52929597 150.31014861 111.52929597 147.140625 106.40625 C145.93203948 104.9823504 145.93203948 104.9823504 142.390625 105.09375 C138.13886508 105.15470713 136.07559995 106.21230667 133.140625 109.40625 Z " fill="#100606" transform="translate(171.859375,-0.40625)"/>
<path d="M0 0 C1.31238144 0.00222061 2.62476288 0.00444122 3.97691345 0.00672913 C4.6988237 0.0065831 5.42073395 0.00643707 6.16452026 0.00628662 C8.56156879 0.00698583 10.95854054 0.01477857 13.35557556 0.02259827 C15.0132442 0.02446242 16.67091338 0.02588633 18.32858276 0.02688599 C22.69996145 0.03071139 27.07130712 0.04054186 31.44267273 0.05158997 C35.89996392 0.0618036 40.35726043 0.0663835 44.81455994 0.07142639 C53.56652824 0.08216412 62.31846968 0.0992408 71.07041931 0.12025452 C71.82086984 6.34305592 72.3014527 12.50838051 72.5511322 18.76966858 C72.59029251 19.69000381 72.62945282 20.61033905 72.6697998 21.55856323 C72.79754876 24.58420708 72.92058408 27.61001856 73.04307556 30.63587952 C73.13122278 32.7731519 73.21947652 34.91041989 73.30783081 37.04768372 C73.492401 41.53288628 73.67440675 46.01818462 73.85484314 50.5035553 C74.03786588 55.04572966 74.2250354 59.58769995 74.41636658 64.12953186 C76.47106533 112.92560944 76.47106533 112.92560944 76.07041931 137.12025452 C66.88235828 137.23610088 57.69454858 137.32494508 48.5059166 137.37931538 C44.23923194 137.40541051 39.97304688 137.440806 35.70664978 137.49745178 C31.58933351 137.55177613 27.47249776 137.58167568 23.35485077 137.59464073 C21.7839069 137.60388001 20.21298937 137.62192266 18.64225006 137.6489048 C16.44162161 137.68520397 14.24297862 137.69019999 12.042099 137.68788147 C10.78967407 137.69898453 9.53724915 137.71008759 8.24687195 137.7215271 C5.07041931 137.12025452 5.07041931 137.12025452 2.67195129 134.8028717 C0.58901025 131.31387897 0.47796198 128.74349519 0.34385681 124.69447327 C0.30124222 123.63325508 0.30124222 123.63325508 0.25776672 122.55059814 C0.17640894 120.40726245 0.12086652 118.26451387 0.07041931 116.12025452 C0.03335876 114.97508362 -0.00370178 113.82991272 -0.04188538 112.65003967 C-0.14792171 109.07787502 -0.22662272 105.50563867 -0.30458069 101.93275452 C-0.60906737 89.24299535 -1.10441148 76.56285579 -1.66004944 63.88197327 C-1.69351219 63.11800547 -1.72697495 62.35403767 -1.76145172 61.56691933 C-2.1044593 53.75613151 -2.45384971 45.94564232 -2.80963802 38.13542652 C-2.94514218 35.15278299 -3.07885794 32.17006058 -3.21235085 29.18732643 C-3.30557545 27.12224871 -3.40159646 25.05731406 -3.4977417 22.99237061 C-4.24437989 6.3332746 -4.24437989 6.3332746 -3.92958069 1.12025452 C-2.92958069 0.12025452 -2.92958069 0.12025452 0 0 Z " fill="#EB6EA6" transform="translate(7.9295806884765625,102.87974548339844)"/>
<path d="M0 0 C7.67536627 -0.02312821 15.35072896 -0.04091753 23.02612209 -0.05181217 C26.58977422 -0.05703995 30.15340257 -0.06413569 33.71704102 -0.07543945 C37.81006097 -0.08834176 41.9030558 -0.09322906 45.99609375 -0.09765625 C47.92418129 -0.10539818 47.92418129 -0.10539818 49.89122009 -0.11329651 C51.66294334 -0.11340981 51.66294334 -0.11340981 53.47045898 -0.11352539 C55.03932106 -0.11685631 55.03932106 -0.11685631 56.63987732 -0.12025452 C59 0 59 0 60 1 C60.65780112 13.12430008 59.64887181 25.44574909 59.125 37.5625 C59.07954041 38.61649994 59.03408081 39.67049988 58.98724365 40.75643921 C58.94101868 41.8277005 58.8947937 42.89896179 58.84716797 44.00268555 C58.77706009 45.63000862 58.77706009 45.63000862 58.70553589 47.29020691 C58.60986398 49.51028721 58.51377155 51.73034942 58.41726685 53.95039368 C58.13245354 60.58875547 57.88324955 67.22721127 57.66775513 73.86817932 C57.53143174 78.02560779 57.3808455 82.18245808 57.22845459 86.33932495 C57.15975596 88.31365067 57.09773097 90.28822045 57.0425415 92.26296997 C56.96502616 95.00566597 56.86407488 97.74657065 56.7578125 100.48828125 C56.74105469 101.29642273 56.72429687 102.10456421 56.70703125 102.93719482 C56.55683191 106.28883496 56.37918533 108.50370859 54.3117981 111.20957947 C51.44377553 113.43077971 50.00155496 113.4865005 46.40527344 113.45410156 C45.28441345 113.45379944 44.16355347 113.45349731 43.00872803 113.45318604 C41.80444153 113.43254089 40.60015503 113.41189575 39.359375 113.390625 C38.12205627 113.38496521 36.88473755 113.37930542 35.60992432 113.37347412 C32.32822064 113.35488251 29.04730719 113.31897498 25.76586914 113.2746582 C22.41429933 113.23366165 19.06269556 113.21579501 15.7109375 113.1953125 C9.14031609 113.15119904 2.57022268 113.08425077 -4 113 C-4.11818159 97.99261796 -3.83486365 83.05619287 -3.125 68.06640625 C-3.03486623 66.08147701 -2.94519499 64.09652672 -2.85595703 62.11155701 C-2.6237912 56.97419864 -2.38549317 51.83714395 -2.14575195 46.70013428 C-1.90062864 41.42331094 -1.66153346 36.14621448 -1.421875 30.86914062 C-0.95369299 20.57915694 -0.47900829 10.28948501 0 0 Z " fill="#EF9CC1" transform="translate(294,121)"/>
<path d="M0 0 C3.91436505 2.14906317 6.60646103 4.24724915 9 8 C9.7734375 10.6640625 9.7734375 10.6640625 10.375 13.625 C13.13986337 25.48061831 18.66418561 34.4476784 29 41 C34.40728699 43.86087666 39.82150444 46.62172476 46 47 C46.81339844 47.07347656 47.62679687 47.14695313 48.46484375 47.22265625 C60.82512836 47.86970471 72.91368535 44.02273949 82.59765625 36.3046875 C86.75737148 32.31406639 89.96206627 27.88085087 93 23 C93.42023438 22.33226562 93.84046875 21.66453125 94.2734375 20.9765625 C97.56638856 15.10867226 98.68435977 8.53833324 100 2 C101.32 2.33 102.64 2.66 104 3 C104.87844142 18.226318 98.63670331 32.51870411 89 44 C79.5673319 54.35957768 64.75974043 61.72919762 50.66796875 62.43359375 C48.84129486 62.45696412 47.0142108 62.45778069 45.1875 62.4375 C43.74346802 62.42614014 43.74346802 62.42614014 42.27026367 62.41455078 C26.79407874 62.05793867 13.56155009 56.1039928 2.34765625 45.4765625 C-6.36307045 36.28754299 -15.50770404 23.49121768 -15.421875 10.359375 C-14.69146105 6.27446734 -12.15083914 3.5758685 -9 1 C-5.64870516 -0.11709828 -3.51689744 -0.34479387 0 0 Z " fill="#FEF9FB" transform="translate(141,138)"/>
<path d="M0 0 C5.94845486 0.39656366 10.76120289 1.82325425 15.625 5.3125 C20.98654305 12.72404481 21.48297036 21.34159096 20.75 30.25 C20.42 30.91 20.09 31.57 19.75 32.25 C21.235 32.745 21.235 32.745 22.75 33.25 C-1.34 33.25 -25.43 33.25 -50.25 33.25 C-50.25 32.92 -50.25 32.59 -50.25 32.25 C-40.02 32.25 -29.79 32.25 -19.25 32.25 C-19.58 31.59 -19.91 30.93 -20.25 30.25 C-21.56093604 13.88202717 -21.56093604 13.88202717 -16.80859375 7.796875 C-11.5460841 2.5739331 -7.39024159 0.56848012 0 0 Z M-5.5 15.8125 C-9.26747255 21.06005105 -8.25 21.0007562 -8.25 29.25 C0 29.25 8.25 29.25 16.75 29.25 C16.75 22.00608477 16.73864632 17.23296948 12.75 11.25 C5.19395024 8.73131675 -0.27161586 9.85795139 -5.5 15.8125 Z M-14.25 19.25 C-14.25 22.55 -14.25 25.85 -14.25 29.25 C-13.92 29.25 -13.59 29.25 -13.25 29.25 C-13.25 25.95 -13.25 22.65 -13.25 19.25 C-13.58 19.25 -13.91 19.25 -14.25 19.25 Z " fill="#201B1B" transform="translate(56.25,69.75)"/>
<path d="M0 0 C3.45369035 0.94191555 4.31855298 1.25269782 6.4375 3.9375 C7.24609375 6.20703125 7.24609375 6.20703125 7.875 8.75 C9.72514054 15.33573341 12.5637711 20.19967252 18.4375 23.9375 C25.39492493 26.37870173 33.79100767 27.58049969 40.87890625 25.07421875 C42.21499831 24.39756071 43.53216692 23.68069985 44.81640625 22.91015625 C46.4375 21.9375 46.4375 21.9375 49.4375 20.9375 C49.9375 24.125 49.9375 24.125 49.4375 27.9375 C47.09219098 30.24005599 44.39102844 31.54490369 41.4375 32.9375 C40.82519531 33.25847656 40.21289062 33.57945312 39.58203125 33.91015625 C31.85235614 37.45361072 22.73287633 36.96496748 14.75 34.5 C5.66352473 30.74602554 -1.11721883 23.58727627 -5.5625 14.9375 C-5.92601563 14.27363281 -6.28953125 13.60976562 -6.6640625 12.92578125 C-8.07309363 9.8075341 -7.92312708 7.30335278 -7.5625 3.9375 C-5.29401339 0.30792142 -4.30870043 -0.07559124 0 0 Z " fill="#FDF7FA" transform="translate(32.5625,168.0625)"/>
<path d="M0 0 C3.12825896 3.20847072 4.2263592 6.25665056 5.4375 10.5 C5.7675 11.49 6.0975 12.48 6.4375 13.5 C6.6670082 20.04098361 6.6670082 20.04098361 5.4375 22.5 C-4.4625 22.5 -14.3625 22.5 -24.5625 22.5 C-24.5625 7.5 -24.5625 7.5 -21.5625 1.5 C-15.52692029 -3.14275362 -6.77553256 -2.85285581 0 0 Z M-14.5625 10.5 C-16.33878868 13.883407 -16.5625 15.58934069 -16.5625 19.5 C-10.2925 19.5 -4.0225 19.5 2.4375 19.5 C2.60702361 12.62304597 2.60702361 12.62304597 -0.5625 7.5 C-1.77108552 6.0761004 -1.77108552 6.0761004 -5.3125 6.1875 C-9.56425992 6.24845713 -11.62752505 7.30605667 -14.5625 10.5 Z " fill="#1A1A18" transform="translate(319.5625,98.5)"/>
<path d="M0 0 C0.66 0 1.32 0 2 0 C2.43888381 8.3387923 0.22960278 14.35699107 -5 21 C-13.27183284 28.40491586 -19.80004477 30.33651123 -30.79296875 30.30078125 C-34 30 -34 30 -38 28 C-38 24.7 -38 21.4 -38 18 C-36.948125 18.433125 -36.948125 18.433125 -35.875 18.875 C-34.92625 19.24625 -33.9775 19.6175 -33 20 C-32.071875 20.37125 -31.14375 20.7425 -30.1875 21.125 C-23.30123296 23.01534781 -18.24559941 22.40669059 -12 19 C-4.83681904 13.97242579 -2.16025797 8.30868449 0 0 Z " fill="#FDF8FB" transform="translate(330,174)"/>
<path d="M0 0 C0.598125 0.53625 1.19625 1.0725 1.8125 1.625 C1.8125 2.285 1.8125 2.945 1.8125 3.625 C0.70841797 3.57279297 0.70841797 3.57279297 -0.41796875 3.51953125 C-7.88527697 3.12061894 -7.88527697 3.12061894 -14.1875 6.625 C-18.68968391 11.8775479 -18.3413921 14.01002894 -19.1875 21.625 C-10.9375 21.625 -2.6875 21.625 5.8125 21.625 C6.3075 23.11 6.3075 23.11 6.8125 24.625 C-4.0775 24.625 -14.9675 24.625 -26.1875 24.625 C-26.1875 23.635 -26.1875 22.645 -26.1875 21.625 C-25.5275 21.625 -24.8675 21.625 -24.1875 21.625 C-24.36539063 20.44744141 -24.36539063 20.44744141 -24.546875 19.24609375 C-25.73184802 9.58856363 -25.73184802 9.58856363 -23.5 5.4375 C-21.1875 2.625 -21.1875 2.625 -18.9375 1.6875 C-18.36 1.666875 -17.7825 1.64625 -17.1875 1.625 C-17.1875 0.965 -17.1875 0.305 -17.1875 -0.375 C-11.62484782 -2.22921739 -5.39650061 -2.32790222 0 0 Z " fill="#070200" transform="translate(67.1875,77.375)"/>
<path d="M0 0 C2.375 1.5 2.375 1.5 4 3 C3.67 3.66 3.34 4.32 3 5 C1.783125 4.896875 0.56625 4.79375 -0.6875 4.6875 C-4.16073364 4.69979463 -4.89666592 4.92586903 -7.875 7.0625 C-10.54516739 10.40208007 -10.54516739 10.40208007 -12 17 C-5.4 17 1.2 17 8 17 C8 17.99 8 18.98 8 20 C-0.25 20 -8.5 20 -17 20 C-17 9.44827586 -17 9.44827586 -14 5 C-9.53437263 0.86929468 -6.0923556 -0.49733515 0 0 Z " fill="#070301" transform="translate(315,101)"/>
<path d="M0 0 C0.66 0 1.32 0 2 0 C2.28571429 8.57142857 2.28571429 8.57142857 0 12 C-0.66 11.34 -1.32 10.68 -2 10 C-1.7578125 7.6171875 -1.7578125 7.6171875 -1.125 4.875 C-0.92132813 3.96492187 -0.71765625 3.05484375 -0.5078125 2.1171875 C-0.34023438 1.41851562 -0.17265625 0.71984375 0 0 Z " fill="#FBE9F1" transform="translate(330,174)"/>
</svg>
